:SAMPLES-PER-SECOND 30
:FRAME-RANGE 1-1390
:FULLY-SPECIFIED
:DEGREES
652
root  34.668 34.9315 -12.7068 170.046 12.1678 178.048
RightUpLeg  -84.6657 -17.6607 59.674
RightLeg  128.652 8.11914 -8.75742
RightFoot  -14.6857 -0.159274 -2.05453
RightToes  6.35937e-011 1.2921e-014 -6.02303e-014
Spine  15.8744 -0.0251408 0.674034
Spine1  -1.75706 2.59432 -4.60423
HEad  11.519 3.98006 0.940406
LeftShoulder1  2.99519 -9.13201 -17.7143
LeftArm  47.8592 -21.7015 -69.1981
LeftForeArm  21.3309 -4.02315 -18.2729
LeftHand  -0.0215797 5.89755 1.91428
RightShoulder  3.35257 7.81535 24.117
RightArm  -2.90539 31.5058 89.9802
RightForeArm  127.419 -3.21876 6.55024
RightHand  1.72138 -17.0078 -17.3184
LeftUpLeg  -20.1596 -9.47796 -11.4773
LeftLeg  54.3988 8.43106 12.9275
LeftFoot  -23.4058 0.367635 2.14775
LeftToes  4.52251e-011 4.07896e-011 -5.42348e-012
653
root  34.8895 35.5461 -13.4061 169.767 10.7734 178.937
RightUpLeg  -85.1504 -18.6676 61.3166
RightLeg  128.966 6.29848 -6.61379
RightFoot  -17.4144 -0.196222 -1.479
RightToes  6.35937e-011 1.2921e-014 -6.02303e-014
Spine  14.7986 0.377004 1.39148
Spine1  -1.72716 3.04002 -4.41625
HEad  12.6648 1.80036 2.36887
LeftShoulder1  3.04265 -9.22363 -17.9337
LeftArm  49.6902 -21.4689 -69.906
LeftForeArm  21.0738 -4.53827 -18.1858
LeftHand  -0.0167834 6.26197 1.99109
RightShoulder  3.32175 7.80381 23.8569
RightArm  -3.11017 31.6018 88.7583
RightForeArm  123.996 -3.41949 6.86169
RightHand  1.66507 -16.5606 -17.4307
LeftUpLeg  -16.7175 -7.80883 -10.3726
LeftLeg  51.0534 7.37873 10.1503
LeftFoot  -23.0125 0.44324 2.9828
LeftToes  4.52251e-011 4.07896e-011 -5.42348e-012
654
root  35.143 36.3507 -14.0856 169.533 9.05143 -179.695
RightUpLeg  -87.2234 -19.5223 64.4457
RightLeg  128.768 6.94624 -7.39782
RightFoot  -17.4631 -0.138782 -0.386206
RightToes  6.35937e-011 1.2921e-014 -6.02303e-014
Spine  14.2302 0.115225 2.49462
Spine1  -2.63642 2.94528 -4.54652
HEad  15.0262 0.299508 3.63479
LeftShoulder1  3.05631 -9.00582 -18.5194
LeftArm  50.7251 -20.5686 -69.1338
LeftForeArm  19.7857 -4.63913 -18.2196
LeftHand  -0.0119711 6.39789 2.31187
RightShoulder  3.32404 7.85752 23.7267
RightArm  -5.36072 31.536 88.4754
RightForeArm  124.259 -3.1363 5.19744
RightHand  1.6514 -16.1504 -17.9266
LeftUpLeg  -12.9474 -6.35418 -8.51604
LeftLeg  46.7847 5.90504 7.13064
LeftFoot  -21.3663 0.472875 3.92562
LeftToes  4.52251e-011 4.07896e-011 -5.42348e-012
655
root  35.3883 37.1673 -14.6084 169.763 6.29903 -179.049
RightUpLeg  -90.9158 -19.5679 66.7052
RightLeg  128.204 8.00296 -8.7676
RightFoot  -16.6852 -0.147859 -0.750115
RightToes  6.35937e-011 1.2921e-014 -6.02303e-014
Spine  14.2988 -0.370123 2.65419
Spine1  -4.26577 2.50893 -4.71987
HEad  16.919 -1.76368 3.90744
LeftShoulder1  3.0897 -8.97445 -18.8816
LeftArm  49.1061 -20.9141 -69.0252
LeftForeArm  22.4529 -4.05072 -18.2207
LeftHand  -0.0251096 5.54119 2.12404
RightShoulder  3.24412 7.77427 23.1991
RightArm  -6.06214 31.5051 88.1832
RightForeArm  121.347 -3.21738 4.89842
RightHand  1.44146 -15.9016 -16.1478
LeftUpLeg  -10.8132 -8.90812 -8.08353
LeftLeg  43.804 5.72373 6.26673
LeftFoot  -17.535 0.244108 2.56541
LeftToes  4.52251e-011 4.07896e-011 -5.42348e-012
656
root  35.6404 37.7909 -14.904 170.121 4.2726 -178.937
RightUpLeg  -92.5373 -18.9475 67.1352
RightLeg  126.429 7.23439 -8.41449
RightFoot  -18.746 -0.146617 -0.305914
RightToes  6.35937e-011 1.2921e-014 -6.02303e-014
Spine  14.1229 0.509586 2.32065
Spine1  -3.39152 3.34866 -3.99373
HEad  15.6164 -5.09406 2.70955
LeftShoulder1  3.45282 -9.93296 -19.8707
LeftArm  50.7209 -23.8081 -70.1534
LeftForeArm  23.9858 -4.55553 -18.0611
LeftHand  -0.0161023 6.43434 1.85543
RightShoulder  2.96408 7.54126 21.115
RightArm  -4.9131 32.4186 87.5263
RightForeArm  115.102 -3.64765 5.77851
RightHand  1.458 -16.1964 -15.8954
LeftUpLeg  -11.6539 -11.0154 -7.91493
LeftLeg  44.5124 5.45702 6.13849
LeftFoot  -11.5436 0.0678787 -0.791664
LeftToes  4.52251e-011 4.07896e-011 -5.42348e-012
657
root  35.9171 38.0551 -14.9881 170.682 2.28132 -178.791
RightUpLeg  -93.4165 -18.3864 67.6251
RightLeg  123.38 6.51778 -8.44485
RightFoot  -20.4943 -0.0585482 1.0018
RightToes  6.35937e-011 1.2921e-014 -6.02303e-014
Spine  16.3802 0.381656 3.0977
Spine1  -4.10185 3.55832 -5.36186
HEad  12.6205 -6.81665 1.99743
LeftShoulder1  3.50151 -10.1263 -19.856
LeftArm  46.4631 -26.4241 -70.4719
LeftForeArm  30.9298 -3.23166 -18.0014
LeftHand  -0.149635 7.55346 -5.39535
RightShoulder  2.96001 8.09866 19.6445
RightArm  -3.89134 33.3086 87.4911
RightForeArm  110.562 -3.96356 6.4183
RightHand  1.27919 -14.6184 -16.3566
LeftUpLeg  -14.1722 -11.2348 -7.29886
LeftLeg  45.2636 4.93964 5.74059
LeftFoot  -9.92785 0.0884209 -2.33945
LeftToes  4.52251e-011 4.07896e-011 -5.42348e-012
658
root  36.2368 38.1209 -15.0314 172.386 1.76357 -179.077
RightUpLeg  -92.8592 -16.952 67.0547
RightLeg  120.069 5.38014 -7.82964
RightFoot  -20.0882 0.000112544 1.77988
RightToes  6.35937e-011 1.2921e-014 -6.02303e-014
Spine  18.1936 0.0986251 4.17425
Spine1  -5.40148 3.90689 -8.4273
HEad  9.96152 -7.05535 1.99451
LeftShoulder1  3.26881 -9.79538 -18.653
LeftArm  49.398 -28.0997 -70.6631
LeftForeArm  29.8804 -3.87408 -17.9495
LeftHand  -0.35023 7.94199 -12.9983
RightShoulder  3.06638 8.73159 19.1289
RightArm  -3.27658 34.03 88.5944
RightForeArm  106.175 -4.1844 6.50706
RightHand  1.55075 -16.0803 -17.0102
LeftUpLeg  -17.611 -10.4358 -6.74982
LeftLeg  42.1747 5.86334 6.06738
LeftFoot  -12.602 0.0473114 -2.56714
LeftToes  4.52251e-011 4.07896e-011 -5.42348e-012
659
root  36.4755 37.6902 -15.0805 173.61 -1.15483 179.618
RightUpLeg  -94.392 -17.1687 66.0337
RightLeg  118.534 5.07636 -7.82614
RightFoot  -19.9587 -0.00486638 1.72896
RightToes  6.35937e-011 1.2921e-014 -6.02303e-014
Spine  20.0237 -0.445738 2.90488
Spine1  -5.8872 3.239 -9.02754
HEad  7.65427 -7.9755 1.37212
LeftShoulder1  3.30071 -10.5496 -17.4284
LeftArm  47.0792 -29.4278 -70.9121
LeftForeArm  33.0721 -3.07547 -17.9373
LeftHand  -0.221083 6.6886 -14.7141
RightShoulder  2.96732 8.62111 18.4845
RightArm  -2.83591 34.7376 89.4226
RightForeArm  104.478 -4.24447 6.38371
RightHand  1.47882 -15.571 -17.0488
LeftUpLeg  -19.5704 -13.4117 -8.22536
LeftLeg  36.2315 9.36625 7.66936
LeftFoot  -16.261 -0.0139446 -2.59333
LeftToes  4.52251e-011 4.07896e-011 -5.42348e-012
660
root  36.6347 36.9688 -15.3622 174.91 -1.79542 179.518
RightUpLeg  -93.6859 -16.9384 65.8803
RightLeg  118.315 4.99004 -7.7526
RightFoot  -19.635 -0.0282383 1.44387
RightToes  6.35937e-011 1.2921e-014 -6.02303e-014
Spine  19.2591 -0.293279 3.02317
Spine1  -4.22053 3.60182 -8.72785
HEad  6.4934 -8.41645 0.433359
LeftShoulder1  3.16283 -10.3719 -16.6694
LeftArm  45.5261 -30.0458 -71.7518
LeftForeArm  33.8838 -2.38867 -17.9732
LeftHand  -0.179961 6.71605 -11.2352
RightShoulder  2.83942 8.92137 16.6829
RightArm  -1.60711 35.2952 90.9186
RightForeArm  103.678 -4.32554 6.65129
RightHand  1.56073 -15.9245 -17.3538
LeftUpLeg  -23.0323 -15.2064 -8.27405
LeftLeg  37.8523 9.33863 8.08674
LeftFoot  -10.0717 0.0171998 3.91507
LeftToes  4.52251e-011 4.07896e-011 -5.42348e-012
661
root  36.7151 35.9596 -15.6564 174.677 -2.1759 178.841
RightUpLeg  -92.4984 -17.4938 64.9541
RightLeg  119.957 5.62728 -8.25156
RightFoot  -18.4395 -0.048857 1.22459
RightToes  6.35937e-011 1.2921e-014 -6.02303e-014
Spine  19.9718 -0.185866 3.04406
Spine1  -3.45572 3.86266 -9.18406
HEad  6.36778 -8.90583 0.202937
LeftShoulder1  3.02061 -10.208 -15.8278
LeftArm  47.0832 -29.4407 -72.387
LeftForeArm  30.4966 -2.68568 -18.0803
LeftHand  -0.0933632 7.10835 -3.3763
RightShoulder  2.83747 8.83175 16.8521
RightArm  -1.53865 34.8926 90.9914
RightForeArm  105.031 -4.28793 6.81338
RightHand  1.31577 -14.3627 -17.2451
LeftUpLeg  -26.3496 -16.8371 -9.30635
LeftLeg  45.5244 9.40571 10.5283
LeftFoot  -12.2307 0.10672 4.27231
LeftToes  4.52251e-011 4.07896e-011 -5.42348e-012
662
root  36.8534 35.2101 -16.1171 174.339 -0.452612 177.231
RightUpLeg  -88.6754 -17.3446 62.4042
RightLeg  122.095 6.73218 -9.17593
RightFoot  -17.4529 -0.138572 -0.384219
RightToes  6.35937e-011 1.2921e-014 -6.02303e-014
Spine  19.578 1.27595 2.32672
Spine1  -1.6514 5.36578 -9.99972
HEad  7.29038 -9.24125 0.21643
LeftShoulder1  2.85499 -9.5785 -15.6187
LeftArm  42.8846 -28.3603 -72.3872
LeftForeArm  32.5571 -1.42605 -18.0774
LeftHand  -0.0203739 6.36172 1.49221
RightShoulder  2.90037 8.93505 17.1979
RightArm  -0.571189 33.9991 90.5833
RightForeArm  108.098 -4.31175 7.86067
RightHand  1.27425 -13.6661 -18.0728
LeftUpLeg  -27.8599 -16.5603 -10.987
LeftLeg  50.7264 9.63632 12.8455
LeftFoot  -14.9168 0.199585 3.52203
LeftToes  4.52251e-011 4.07896e-011 -5.42348e-012
663
root  36.8638 34.5283 -16.5748 174.352 -0.617187 176.598
RightUpLeg  -86.7117 -17.9875 61.256
RightLeg  125.148 8.04066 -9.84932
RightFoot  -18.507 -0.228147 -1.64475
RightToes  6.35937e-011 1.2921e-014 -6.02303e-014
Spine  19.5618 1.51948 2.94782
Spine1  -1.35719 5.79133 -10.7076
HEad  8.51049 -9.25138 0.084702
LeftShoulder1  2.73201 -8.76778 -16.1338
LeftArm  44.401 -26.4419 -72.4568
LeftForeArm  29.1416 -1.82299 -18.2011
LeftHand  -0.0156796 8.70018 1.05573
RightShoulder  2.86283 8.98091 16.7684
RightArm  -0.510604 32.7078 90.9981
RightForeArm  110.075 -4.26623 8.15731
RightHand  1.60381 -15.5923 -18.3531
LeftUpLeg  -29.3944 -16.9712 -12.0643
LeftLeg  55.263 8.90907 14.028
LeftFoot  -17.4016 0.252522 2.79579
LeftToes  4.52251e-011 4.07896e-011 -5.42348e-012
664
root  36.9433 34.0785 -16.9325 174.532 -2.4993 176.588
RightUpLeg  -86.389 -18.7434 60.5287
RightLeg  127.509 9.44554 -10.6711
RightFoot  -18.2523 -0.284219 -2.66277
RightToes  6.35937e-011 1.2921e-014 -6.02303e-014
Spine  20.137 1.20623 4.03901
Spine1  -2.19404 5.50332 -11.0925
HEad  9.01937 -9.5994 -0.160834
LeftShoulder1  2.76436 -8.38301 -17.2473
LeftArm  42.3294 -24.4254 -71.9137
LeftForeArm  28.7547 -1.36645 -18.236
LeftHand  0.0228173 7.96488 2.79833
RightShoulder  2.89092 9.00225 16.9735
RightArm  -0.762564 31.7193 90.6111
RightForeArm  113.269 -4.15462 8.39374
RightHand  1.33261 -15.2862 -15.8984
LeftUpLeg  -30.3 -18.6726 -12.5419
LeftLeg  58.2127 8.22426 14.5531
LeftFoot  -19.0318 0.29551 2.6957
LeftToes  4.52251e-011 4.07896e-011 -5.42348e-012
665
root  36.9528 33.7595 -17.3508 174.676 -5.75461 176.076
RightUpLeg  -87.2282 -19.2508 59.8224
RightLeg  128.485 11.2232 -12.2763
RightFoot  -19.0173 -0.177403 -0.726786
RightToes  6.35937e-011 1.2921e-014 -6.02303e-014
Spine  20.439 0.96802 4.30194
Spine1  -3.13516 5.29523 -10.5755
HEad  8.92168 -11.34 0.72082
LeftShoulder1  2.89 -8.06244 -19.1659
LeftArm  40.359 -23.7805 -71.656
LeftForeArm  31.7791 -0.951001 -18.1163
LeftHand  0.0441167 8.66072 3.06525
RightShoulder  2.84807 8.65916 17.3154
RightArm  -1.10189 30.9764 89.214
RightForeArm  114.661 -4.13197 8.65771
RightHand  1.18143 -13.5874 -17.0001
LeftUpLeg  -30.1998 -20.4849 -13.9381
LeftLeg  59.9109 7.26118 13.8792
LeftFoot  -20.4122 0.352095 2.89239
LeftToes  4.52251e-011 4.07896e-011 -5.42348e-012
666
root  37.0805 33.582 -17.8206 174.407 -8.95174 176.069
RightUpLeg  -87.6127 -19.4443 60.5265
RightLeg  128.157 10.996 -12.1673
RightFoot  -23.1997 -0.530426 -3.59409
RightToes  6.35937e-011 1.2921e-014 -6.02303e-014
Spine  19.561 1.19259 4.80197
Spine1  -2.47984 5.69162 -9.94723
HEad  8.2037 -13.9834 2.91611
LeftShoulder1  3.07586 -8.44199 -19.9837
LeftArm  42.7723 -25.0008 -71.8851
LeftForeArm  30.6858 -1.72021 -18.1427
LeftHand  0.0436592 10.3485 2.24141
RightShoulder  2.75576 8.35026 17.1378
RightArm  -0.57378 31.116 88.5834
RightForeArm  111.289 -4.38066 9.23641
RightHand  1.36388 -15.112 -16.5217
LeftUpLeg  -29.3279 -20.7441 -14.6019
LeftLeg  61.0761 5.85049 11.9386
LeftFoot  -21.7891 0.43256 3.29807
LeftToes  4.52251e-011 4.07896e-011 -5.42348e-012
